<svg xmlns="http://www.w3.org/2000/svg" viewBox="0 0 512 512" width="512" height="512">
  <rect width="512" height="512" rx="64" fill="#0a0a1a"/>
  <g transform="translate(76, 46)">
    <!-- T-piece -->
    <rect x="90" y="26" width="80" height="80" rx="10" fill="#a000f0"/>
    <rect x="10" y="106" width="80" height="80" rx="10" fill="#a000f0"/>
    <rect x="90" y="106" width="80" height="80" rx="10" fill="#a000f0"/>
    <rect x="170" y="106" width="80" height="80" rx="10" fill="#a000f0"/>
    <!-- L-piece -->
    <rect x="10" y="216" width="80" height="80" rx="10" fill="#f0a000"/>
    <rect x="10" y="296" width="80" height="80" rx="10" fill="#f0a000"/>
    <rect x="90" y="296" width="80" height="80" rx="10" fill="#f0a000"/>
    <!-- O-piece -->
    <rect x="200" y="216" width="80" height="80" rx="10" fill="#00f0f0"/>
    <rect x="280" y="216" width="80" height="80" rx="10" fill="#00f0f0"/>
    <rect x="200" y="296" width="80" height="80" rx="10" fill="#00f0f0"/>
    <rect x="280" y="296" width="80" height="80" rx="10" fill="#00f0f0"/>
  </g>
</svg>
