<svg xmlns="http://www.w3.org/2000/svg" viewBox="0 0 192 192" width="192" height="192">
  <rect width="192" height="192" rx="24" fill="#0a0a1a"/>
  <g transform="translate(28, 16)">
    <!-- T-piece -->
    <rect x="34" y="10" width="30" height="30" rx="4" fill="#a000f0"/>
    <rect x="4" y="40" width="30" height="30" rx="4" fill="#a000f0"/>
    <rect x="34" y="40" width="30" height="30" rx="4" fill="#a000f0"/>
    <rect x="64" y="40" width="30" height="30" rx="4" fill="#a000f0"/>
    <!-- L-piece -->
    <rect x="4" y="80" width="30" height="30" rx="4" fill="#f0a000"/>
    <rect x="4" y="110" width="30" height="30" rx="4" fill="#f0a000"/>
    <rect x="34" y="110" width="30" height="30" rx="4" fill="#f0a000"/>
    <!-- I-piece -->
    <rect x="74" y="80" width="30" height="30" rx="4" fill="#00f0f0"/>
    <rect x="104" y="80" width="30" height="30" rx="4" fill="#00f0f0"/>
    <rect x="74" y="110" width="30" height="30" rx="4" fill="#00f0f0"/>
    <rect x="104" y="110" width="30" height="30" rx="4" fill="#00f0f0"/>
  </g>
</svg>
